# xmcd
# 
# Track frame offsets:
#     150
#     23965
#     44660
#     67207
#     87447
#     105345
#     134335
#     153722
#     169112
#     190072
#     224245
# 
# Disc length: 3384
# 
# Revision: 0
# Processed by: cddbd v1.5.2PL0 Copyright (c) Steve Scherf et al.
# Submitted via: BonkEnc v1.0
# 
DISCID=a70d360b
DTITLE=GLAY - pure soul
DYEAR=1998
DGENRE=Rock
TTITLE0=YOU MAY DREAM
TTITLE1=ビリビリクラッシュメン
TTITLE2=May Fair
TTITLE3=SOUL LOVE
TTITLE4=出逢ってしまった2人
TTITLE5=pure soul
TTITLE6=誘惑
TTITLE7=COME ON!!
TTITLE8=FRIEDCHICKEN and BEER
TTITLE9=3年後
TTITLE10=I'm in Love
EXTD=YEAR: 1998
EXTT0=
EXTT1=
EXTT2=
EXTT3=
EXTT4=
EXTT5=
EXTT6=
EXTT7=
EXTT8=
EXTT9=
EXTT10=
PLAYORDER=
